<svg xmlns="http://www.w3.org/2000/svg" width="512" height="512" viewBox="0 0 512 512">
  <defs>
  <linearGradient id="gold" x1="0" y1="0" x2="0" y2="1">
    <stop offset="0%" stop-color="#fff3c4"/>
    <stop offset="45%" stop-color="#ffd24a"/>
    <stop offset="100%" stop-color="#b97d11"/>
  </linearGradient>
  <radialGradient id="dark" cx="50%" cy="38%" r="70%">
    <stop offset="0%" stop-color="#1c2b22"/>
    <stop offset="100%" stop-color="#070d0a"/>
  </radialGradient>
    <radialGradient id="acc" cx="50%" cy="35%" r="70%">
      <stop offset="0%" stop-color="#ffd24a" stop-opacity="0.35"/>
      <stop offset="100%" stop-color="#ffd24a" stop-opacity="0"/>
    </radialGradient>
  </defs>
  <circle cx="256" cy="256" r="236" fill="url(#dark)" stroke="url(#gold)" stroke-width="16"/>
  <circle cx="256" cy="256" r="214" fill="url(#acc)"/>
  <circle cx="256" cy="256" r="220" fill="none" stroke="#000" stroke-opacity="0.35" stroke-width="3"/>
  <g transform="translate(256 252) scale(1.5)">
   <path d="M-60,-70 L-20,-90 q40,28 80,0 L60,-70 L104,-30 L74,6 L60,-10 L60,96 L-60,96 L-60,-10 L-74,6 L-104,-30 Z"
     fill="#c0182e" stroke="#3a0a12" stroke-width="5"/>
   <rect x="-14" y="-6" width="28" height="102" fill="#fff" opacity="0.85"/>
   <path d="M-20,-90 q20,30 40,0 L34,-72 q-34,22 -68,0 Z" fill="#fff" opacity="0.9"/>
   <text x="0" y="70" text-anchor="middle" font-family="Arial Black, Arial, sans-serif" font-weight="900" font-size="64" fill="#c0182e">9</text>
 </g>
</svg>
