<svg xmlns="http://www.w3.org/2000/svg" width="512" height="512" viewBox="0 0 512 512">
  <defs>
  <linearGradient id="gold" x1="0" y1="0" x2="0" y2="1">
    <stop offset="0%" stop-color="#fff3c4"/>
    <stop offset="45%" stop-color="#ffd24a"/>
    <stop offset="100%" stop-color="#b97d11"/>
  </linearGradient>
  <radialGradient id="dark" cx="50%" cy="38%" r="70%">
    <stop offset="0%" stop-color="#1c2b22"/>
    <stop offset="100%" stop-color="#070d0a"/>
  </radialGradient>
    <radialGradient id="acc" cx="50%" cy="35%" r="70%">
      <stop offset="0%" stop-color="#ffd24a" stop-opacity="0.35"/>
      <stop offset="100%" stop-color="#ffd24a" stop-opacity="0"/>
    </radialGradient>
  </defs>
  <circle cx="256" cy="256" r="236" fill="url(#dark)" stroke="url(#gold)" stroke-width="16"/>
  <circle cx="256" cy="256" r="214" fill="url(#acc)"/>
  <circle cx="256" cy="256" r="220" fill="none" stroke="#000" stroke-opacity="0.35" stroke-width="3"/>
  <g transform="translate(256 256) scale(1.25)">
   <g transform="translate(-58 0) ">
     <path d="M-34,-70 q-10,-26 8,-30 q14,-3 16,18 l2,30 l8,-2 l4,-40 q2,-18 16,-16 q14,2 12,22 l-2,40
              l30,8 q22,8 18,40 l-8,52 q-6,30 -40,30 l-44,0 q-26,0 -30,-26 Z"
       fill="url(#gold)" stroke="#6b4708" stroke-width="5"/>
     <path d="M-30,40 q40,16 78,0" fill="none" stroke="#6b4708" stroke-width="4" opacity="0.6"/>
   </g><g transform="translate(58 0) scale(-1,1)">
     <path d="M-34,-70 q-10,-26 8,-30 q14,-3 16,18 l2,30 l8,-2 l4,-40 q2,-18 16,-16 q14,2 12,22 l-2,40
              l30,8 q22,8 18,40 l-8,52 q-6,30 -40,30 l-44,0 q-26,0 -30,-26 Z"
       fill="url(#gold)" stroke="#6b4708" stroke-width="5"/>
     <path d="M-30,40 q40,16 78,0" fill="none" stroke="#6b4708" stroke-width="4" opacity="0.6"/>
   </g>
 </g>
</svg>
