<svg xmlns="http://www.w3.org/2000/svg" width="512" height="512" viewBox="0 0 512 512">
  <defs>
  <linearGradient id="gold" x1="0" y1="0" x2="0" y2="1">
    <stop offset="0%" stop-color="#fff3c4"/>
    <stop offset="45%" stop-color="#ffd24a"/>
    <stop offset="100%" stop-color="#b97d11"/>
  </linearGradient>
  <radialGradient id="dark" cx="50%" cy="38%" r="70%">
    <stop offset="0%" stop-color="#1c2b22"/>
    <stop offset="100%" stop-color="#070d0a"/>
  </radialGradient>
    <radialGradient id="acc" cx="50%" cy="35%" r="70%">
      <stop offset="0%" stop-color="#ffd24a" stop-opacity="0.35"/>
      <stop offset="100%" stop-color="#ffd24a" stop-opacity="0"/>
    </radialGradient>
  </defs>
  <circle cx="256" cy="256" r="236" fill="url(#dark)" stroke="url(#gold)" stroke-width="16"/>
  <circle cx="256" cy="256" r="214" fill="url(#acc)"/>
  <circle cx="256" cy="256" r="220" fill="none" stroke="#000" stroke-opacity="0.35" stroke-width="3"/>
  <g transform="translate(256 250) scale(1.35)" stroke="#6b4708" stroke-width="4">
   <path d="M-70,-90 q-46,0 -46,40 q0,46 56,52 M70,-90 q46,0 46,40 q0,46 -56,52" fill="none" stroke="url(#gold)" stroke-width="14"/>
   <path d="M-72,-96 L72,-96 L60,10 q-60,46 -120,0 Z" fill="url(#gold)"/>
   <rect x="-16" y="6" width="32" height="46" fill="url(#gold)"/>
   <rect x="-52" y="52" width="104" height="22" rx="6" fill="url(#gold)"/>
   <rect x="-66" y="74" width="132" height="20" rx="6" fill="#b97d11"/>
   <path d="M-44,-86 q44,40 88,0" fill="none" stroke="#fff3c4" stroke-width="6" opacity="0.7"/>
 </g>
</svg>
