<svg xmlns="http://www.w3.org/2000/svg" width="512" height="512" viewBox="0 0 512 512">
  <defs>
  <linearGradient id="gold" x1="0" y1="0" x2="0" y2="1">
    <stop offset="0%" stop-color="#fff3c4"/>
    <stop offset="45%" stop-color="#ffd24a"/>
    <stop offset="100%" stop-color="#b97d11"/>
  </linearGradient>
  <radialGradient id="dark" cx="50%" cy="38%" r="70%">
    <stop offset="0%" stop-color="#1c2b22"/>
    <stop offset="100%" stop-color="#070d0a"/>
  </radialGradient>
    <radialGradient id="acc" cx="50%" cy="35%" r="70%">
      <stop offset="0%" stop-color="#ffd24a" stop-opacity="0.35"/>
      <stop offset="100%" stop-color="#ffd24a" stop-opacity="0"/>
    </radialGradient>
  </defs>
  <circle cx="256" cy="256" r="236" fill="url(#dark)" stroke="url(#gold)" stroke-width="16"/>
  <circle cx="256" cy="256" r="214" fill="url(#acc)"/>
  <circle cx="256" cy="256" r="220" fill="none" stroke="#000" stroke-opacity="0.35" stroke-width="3"/>
  <g transform="translate(256 250) scale(1.15)">
   <path d="M-110,-30 q10,-34 56,-34 q40,0 56,26 q12,20 70,30 q44,8 44,40 l0,18 q0,16 -18,16 l-196,0
            q-22,0 -22,-22 Z" fill="#111418" stroke="url(#gold)" stroke-width="7"/>
   <path d="M-96,-26 q14,-22 44,-22 q30,0 40,20" fill="none" stroke="url(#gold)" stroke-width="6"/>
   <circle cx="-70" cy="74" r="9" fill="url(#gold)"/><circle cx="-30" cy="74" r="9" fill="url(#gold)"/><circle cx="14" cy="74" r="9" fill="url(#gold)"/><circle cx="60" cy="74" r="9" fill="url(#gold)"/>
   <path d="M-40,-18 l24,30 M-14,-22 l24,30 M12,-22 l22,28" stroke="#fff" stroke-width="5" opacity="0.7" fill="none"/>
 </g>
</svg>
