<svg xmlns="http://www.w3.org/2000/svg" width="1250" height="720" viewBox="0 0 1250 720">
  <defs>
  <linearGradient id="gold" x1="0" y1="0" x2="0" y2="1">
    <stop offset="0%" stop-color="#fff3c4"/>
    <stop offset="45%" stop-color="#ffd24a"/>
    <stop offset="100%" stop-color="#b97d11"/>
  </linearGradient>
  <radialGradient id="dark" cx="50%" cy="38%" r="70%">
    <stop offset="0%" stop-color="#1c2b22"/>
    <stop offset="100%" stop-color="#070d0a"/>
  </radialGradient>
    <filter id="glow" x="-20%" y="-20%" width="140%" height="140%">
      <feGaussianBlur stdDeviation="9" result="b"/>
      <feMerge><feMergeNode in="b"/><feMergeNode in="SourceGraphic"/></feMerge>
    </filter>
  </defs>
  <!-- clearer, darker reel area for symbol contrast -->
  <rect x="123" y="58" width="1004" height="604" rx="34" fill="#020a06" fill-opacity="0.82"/>
  <rect x="123" y="58" width="1004" height="604" rx="34" fill="none" stroke="#000" stroke-opacity="0.6" stroke-width="3"/>
  <!-- soft outer gold glow -->
  <rect x="44" y="36" width="1162" height="648" rx="48" fill="none" stroke="#ffd24a" stroke-opacity="0.35" stroke-width="40" filter="url(#glow)"/>
  <!-- main heavy gold border -->
  <rect x="46" y="38" width="1158" height="644" rx="48" fill="none" stroke="url(#gold)" stroke-width="34"/>
  <rect x="46" y="38" width="1158" height="644" rx="48" fill="none" stroke="#3a2600" stroke-opacity="0.55" stroke-width="3"/>
  <rect x="106" y="46" width="1038" height="628" rx="32" fill="none" stroke="#7a1020" stroke-width="7" opacity="0.85"/>
  <rect x="116" y="52" width="1018" height="616" rx="28" fill="none" stroke="#fff3c4" stroke-opacity="0.5" stroke-width="2"/>
  <!-- LED corner accents -->
  <circle cx="78" cy="70" r="15" fill="url(#gold)" filter="url(#glow)"/><circle cx="1172" cy="70" r="15" fill="url(#gold)" filter="url(#glow)"/><circle cx="78" cy="650" r="15" fill="url(#gold)" filter="url(#glow)"/><circle cx="1172" cy="650" r="15" fill="url(#gold)" filter="url(#glow)"/>
  <circle cx="130" cy="38" r="5" fill="#ffd24a" opacity="0.85"/><circle cx="185" cy="38" r="5" fill="#ffd24a" opacity="0.85"/><circle cx="240" cy="38" r="5" fill="#ffd24a" opacity="0.85"/><circle cx="295" cy="38" r="5" fill="#ffd24a" opacity="0.85"/><circle cx="350" cy="38" r="5" fill="#ffd24a" opacity="0.85"/><circle cx="405" cy="38" r="5" fill="#ffd24a" opacity="0.85"/><circle cx="460" cy="38" r="5" fill="#ffd24a" opacity="0.85"/><circle cx="515" cy="38" r="5" fill="#ffd24a" opacity="0.85"/><circle cx="570" cy="38" r="5" fill="#ffd24a" opacity="0.85"/><circle cx="625" cy="38" r="5" fill="#ffd24a" opacity="0.85"/><circle cx="680" cy="38" r="5" fill="#ffd24a" opacity="0.85"/><circle cx="735" cy="38" r="5" fill="#ffd24a" opacity="0.85"/><circle cx="790" cy="38" r="5" fill="#ffd24a" opacity="0.85"/><circle cx="845" cy="38" r="5" fill="#ffd24a" opacity="0.85"/><circle cx="900" cy="38" r="5" fill="#ffd24a" opacity="0.85"/><circle cx="955" cy="38" r="5" fill="#ffd24a" opacity="0.85"/><circle cx="1010" cy="38" r="5" fill="#ffd24a" opacity="0.85"/><circle cx="1065" cy="38" r="5" fill="#ffd24a" opacity="0.85"/>
  <circle cx="130" cy="682" r="5" fill="#ffd24a" opacity="0.85"/><circle cx="185" cy="682" r="5" fill="#ffd24a" opacity="0.85"/><circle cx="240" cy="682" r="5" fill="#ffd24a" opacity="0.85"/><circle cx="295" cy="682" r="5" fill="#ffd24a" opacity="0.85"/><circle cx="350" cy="682" r="5" fill="#ffd24a" opacity="0.85"/><circle cx="405" cy="682" r="5" fill="#ffd24a" opacity="0.85"/><circle cx="460" cy="682" r="5" fill="#ffd24a" opacity="0.85"/><circle cx="515" cy="682" r="5" fill="#ffd24a" opacity="0.85"/><circle cx="570" cy="682" r="5" fill="#ffd24a" opacity="0.85"/><circle cx="625" cy="682" r="5" fill="#ffd24a" opacity="0.85"/><circle cx="680" cy="682" r="5" fill="#ffd24a" opacity="0.85"/><circle cx="735" cy="682" r="5" fill="#ffd24a" opacity="0.85"/><circle cx="790" cy="682" r="5" fill="#ffd24a" opacity="0.85"/><circle cx="845" cy="682" r="5" fill="#ffd24a" opacity="0.85"/><circle cx="900" cy="682" r="5" fill="#ffd24a" opacity="0.85"/><circle cx="955" cy="682" r="5" fill="#ffd24a" opacity="0.85"/><circle cx="1010" cy="682" r="5" fill="#ffd24a" opacity="0.85"/><circle cx="1065" cy="682" r="5" fill="#ffd24a" opacity="0.85"/>
</svg>
